<svg xmlns="http://www.w3.org/2000/svg" xmlns:xlink="http://www.w3.org/1999/xlink" viewBox="0 0 617.65 179.25">
  <defs>
    <linearGradient id="Dégradé_sans_nom_2" data-name="Dégradé sans nom 2" x1="355.25" y1="241.73" x2="267.93" y2="329.81" gradientUnits="userSpaceOnUse">
      <stop offset="0" stop-color="#8ec8d0"/>
      <stop offset="1" stop-color="#040037"/>
    </linearGradient>
    <linearGradient id="Dégradé_sans_nom_2-2" x1="526.28" y1="242.03" x2="529.35" y2="343.13" xlink:href="#Dégradé_sans_nom_2"/>
    <linearGradient id="Dégradé_sans_nom_2-3" x1="610.08" y1="271.17" x2="577.91" y2="340.11" xlink:href="#Dégradé_sans_nom_2"/>
    <linearGradient id="Dégradé_sans_nom_2-4" x1="696.78" y1="290.79" x2="682.22" y2="336.75" xlink:href="#Dégradé_sans_nom_2"/>
    <linearGradient id="Dégradé_sans_nom_2-5" x1="731.12" y1="272.76" x2="748.73" y2="335.57" xlink:href="#Dégradé_sans_nom_2"/>
    <linearGradient id="Dégradé_sans_nom_2-6" x1="823.39" y1="285.65" x2="805.77" y2="331.61" xlink:href="#Dégradé_sans_nom_2"/>
    <linearGradient id="Dégradé_sans_nom_2-7" x1="671.9" y1="221.31" x2="612.92" y2="352.29" xlink:href="#Dégradé_sans_nom_2"/>
  </defs>
  <g id="text-sous">
    <g id="mask-noir">
      <path id="é2" d="M370.81,319.8c-9.24,6.12-14.42,7.41-17.13,7.41a7.73,7.73,0,0,1-4.39-1.51,9,9,0,0,1-1.36-1.16c12.11-4.63,21.8-9.79,28.86-15.38,8.4-6.64,12.66-13.54,12.66-20.51,0-3.6-1.39-12-14.26-12-11.71,0-23.34,5.18-34.55,15.42s-17,21.11-17,32.09c0,6.28,2.06,11.46,6.12,15.39s9.34,5.87,15.8,5.87a40.17,40.17,0,0,0,18.74-5.05,42.8,42.8,0,0,0,15.06-12.7l2-2.73-8.38-6.56Zm-16.12-19.39c5.2-5.59,9.91-8.42,14-8.42a2.1,2.1,0,0,1,1.88,1.88c0,1.46-1,4.67-8,9.71A77.56,77.56,0,0,1,347,312.16,37.36,37.36,0,0,1,354.69,300.41Z" transform="translate(-231.51 -212.45)" fill="#040037"/>
      <path id="é2-2" data-name="é2" d="M355.17,279.77l-11-6.84,28.27-16.7L392,267.72Z" transform="translate(-231.51 -212.45)" fill="#040037"/>
      <path id="é1" d="M441.88,279.77l-11-6.84,28.27-16.7,19.54,11.49Z" transform="translate(-231.51 -212.45)" fill="#040037"/>
      <path id="e1" d="M457.53,319.8c-9.25,6.12-14.42,7.41-17.14,7.41A7.68,7.68,0,0,1,436,325.7a9,9,0,0,1-1.37-1.16c12.11-4.63,21.81-9.79,28.87-15.38,8.39-6.64,12.65-13.54,12.65-20.51,0-3.6-1.39-12-14.25-12-11.72,0-23.35,5.18-34.56,15.42s-17,21.11-17,32.09c0,6.28,2.06,11.46,6.12,15.39s9.34,5.87,15.8,5.87A40.21,40.21,0,0,0,451,340.4a42.89,42.89,0,0,0,15.06-12.7l2-2.73-8.39-6.56ZM441.4,300.41c5.21-5.59,9.91-8.42,14-8.42a1.66,1.66,0,0,1,1.27.6,1.68,1.68,0,0,1,.6,1.28c0,1.46-1,4.67-8,9.71a77.65,77.65,0,0,1-15.56,8.58A37.54,37.54,0,0,1,441.4,300.41Z" transform="translate(-231.51 -212.45)" fill="#040037"/>
      <path id="d" d="M490.75,347.57c-5.21,0-9.46-1.68-12.63-5s-4.72-7.65-4.72-13c0-7.79,3.08-15.9,9.17-24.09a73,73,0,0,1,21.9-19.59c8.77-5.14,17.15-7.74,24.91-7.74h3.22l.62,7.29c2.14-4.18,4-7.8,5.51-10.83l7.17-14.18q3.51-6.92,9.21-18.25t11.25-22.26l1.39-2.74,15.07,5.32-4.22,7.84a644.91,644.91,0,0,0-30.32,64.35c-5.35,13.22-8.06,23.14-8.06,29.51a3,3,0,0,0,.48,1.9,2.37,2.37,0,0,0,1.48.3c.23,0,1.54-.13,4.13-2.72l2.4-2.41,7.22,6.82-1,2.26a26.63,26.63,0,0,1-8.4,10.07c-4.09,3.13-8.2,4.72-12.24,4.72-8.23,0-12.95-5.32-12.95-14.59,0-.91,0-1.91.14-3C511.26,341,501.14,347.57,490.75,347.57Zm39.72-56.77-.15,0c-8.62,1.1-16.81,4.92-24.34,11.34-7.24,6.17-10.91,12.37-10.91,18.44a7,7,0,0,0,1.53,4.9,4.76,4.76,0,0,0,3.77,1.54c2.33,0,7.78-2,18.07-15.72A123,123,0,0,0,529,293.74Z" transform="translate(-231.51 -212.45)" fill="#040037"/>
      <path id="i22" d="M581.05,345.29c-4.71,0-12.62-2.11-12.62-16.21,0-11.21,4.39-25.23,13.42-42.84,2.43-4.59,3.19-6.05,3.41-6.48l1.69-3.4,13.14,7.94-1.63,2.95c-2.19,4-4.93,10.43-8.17,19.24-4.29,11.67-4.76,15.18-4.76,16.15,0,2.31.54,2.92.6,3a1.89,1.89,0,0,0,1.45.61c.47,0,3.15-.37,9.6-7.63l2.28-2.56,8,6.8-1.3,2.48a44.54,44.54,0,0,1-11.23,13.88C590,343.3,585.41,345.29,581.05,345.29Z" transform="translate(-231.51 -212.45)" fill="#040037"/>
      <path id="i2" d="M395.73,346.43a10.17,10.17,0,1,1,7.2-3A10,10,0,0,1,395.73,346.43Z" transform="translate(-231.51 -212.45)" fill="#040037"/>
      <path id="f" d="M691.46,218.13c-2.75-3.77-7.27-5.68-13.42-5.68a30.59,30.59,0,0,0-16.43,5c-3.7,2.43-7.51,7.56-11.63,15.68-2.89,5.66-7.36,18.83-13.67,40.25a98,98,0,0,0-20.79,14.51c-4.93,4.54-7.32,8.58-7.32,12.36,0,3.25,1.24,10.83,12.79,10.83a40.06,40.06,0,0,0,5.53-.41c-1.35,4.63-3.39,11.38-6.11,20.19-8.22,27.31-12.21,45.34-12.21,55.12v5.74l17.43-9v-2.14c0-6.49,3.63-22.57,10.79-47.78,3-10.37,5.17-18.55,6.63-24.37l17.54-2.35L670,290.87l-23.26,2.68,3.55-13.43c29.45-18.67,44-35,44.64-49.79A18.42,18.42,0,0,0,691.46,218.13ZM631,294.82a9.48,9.48,0,0,1-3.22-.71,11.33,11.33,0,0,1,2-1.9,23.89,23.89,0,0,1,2.29-1.58Zm41.71-50.35a43.68,43.68,0,0,1-3.26,3.73h0c-.78.8-1.64,1.63-2.58,2.51l-10.78,9.1c.24-.87.49-1.81.75-2.77.1-.35.19-.69.29-1.05h0a86.37,86.37,0,0,1,5.78-15.81c2.35-4.69,5.65-6.87,10.4-6.87a3.58,3.58,0,0,1,2.48.63,4,4,0,0,1,.55,2.71C676.26,238.34,675.45,240.9,672.71,244.47Z" transform="translate(-231.51 -212.45)" fill="#040037"/>
      <path id="i1" d="M701.18,276.34c-11.39,0-12.63-7.58-12.63-10.83a13.87,13.87,0,0,1,3.09-9.08,10.78,10.78,0,0,1,8.57-4,11.72,11.72,0,0,1,8.24,3.05,10.74,10.74,0,0,1,3.4,8.11,14.7,14.7,0,0,1-2.54,8.3A9.45,9.45,0,0,1,701.18,276.34Z" transform="translate(-231.51 -212.45)" fill="#040037"/>
      <path id="i11" d="M680.32,345.29c-4.72,0-12.63-2.11-12.63-16.21,0-11.21,4.39-25.23,13.43-42.84,2.42-4.59,3.19-6.05,3.4-6.48l1.69-3.4,13.14,7.94-1.62,2.95c-2.19,4-4.94,10.43-8.18,19.24-4.29,11.67-4.75,15.18-4.75,16.15,0,2.31.54,2.92.6,3a1.86,1.86,0,0,0,1.44.61c.47,0,3.15-.37,9.61-7.63l2.27-2.56,8,6.8-1.29,2.48A44.82,44.82,0,0,1,694.2,339.2C689.21,343.3,684.67,345.29,680.32,345.29Z" transform="translate(-231.51 -212.45)" fill="#040037"/>
      <path id="i1-2" data-name="i1" d="M601.92,276.34c-11.4,0-12.63-7.58-12.63-10.83a13.92,13.92,0,0,1,3.08-9.08,10.79,10.79,0,0,1,8.57-4,11.75,11.75,0,0,1,8.25,3.05,10.74,10.74,0,0,1,3.4,8.11,14.77,14.77,0,0,1-2.54,8.3A9.45,9.45,0,0,1,601.92,276.34Z" transform="translate(-231.51 -212.45)" fill="#040037"/>
      <path id="c" d="M730.44,345.29a22.05,22.05,0,0,1-15.78-6c-4.24-4-6.38-9.55-6.38-16.39,0-6.61,2.81-13.73,8.35-21.16a64.64,64.64,0,0,1,20.92-17.93h0c8.59-4.72,17.19-7.11,25.57-7.11,1.2,0,2.92.11,5.24.34l3.4.34-1,12.85-3.09.15c-11.1.5-20.4,3.89-27.63,10.08s-10.59,12.26-10.59,18.86a6.59,6.59,0,0,0,7.09,7.09c2.79,0,8-1.76,16.83-10.13l2.26-2.13,8.32,6.93-1.05,2.41A35.05,35.05,0,0,1,749,339.38C742.7,343.3,736.46,345.29,730.44,345.29Z" transform="translate(-231.51 -212.45)" fill="#040037"/>
      <path id="a" d="M825.22,345.45c-8.33,0-13.11-5-13.11-13.6v-.21c-5.2,5-9.73,8.41-13.81,10.37a32.66,32.66,0,0,1-14.15,3.44c-5.15,0-9.17-1.56-12-4.65s-4.08-7-4.08-12.05c0-8.38,3.21-16.7,9.55-24.74a70.86,70.86,0,0,1,23.65-19.13,65.07,65.07,0,0,1,28.93-7.55l3.34,0,.71,11.71-9.79,2.1a55.47,55.47,0,0,0-24.61,12.26c-6.71,5.8-10.11,11.46-10.11,16.83,0,6.2,2.6,6.2,4.32,6.2,2.71,0,7.62-1.61,15.68-9.3A87.59,87.59,0,0,0,827,293.89l1.71-3.3,12.83,7.63-1.45,2.91c-8.47,17.08-9.74,22.6-9.74,24.36a1.69,1.69,0,0,0,.52,1.35,2.22,2.22,0,0,0,.7.54,9.53,9.53,0,0,0,1-.05,4,4,0,0,0,.39-.16c.1-.06.35-.19.83-.52a9.24,9.24,0,0,0,1-.72c.45-.39,1.14-.93,2.05-1.61s1.51-1.15,2-1.56l2.1-1.68,8.22,6.07L848,329.74c-1.77,3.8-5,7.38-9.52,10.65S829.33,345.45,825.22,345.45Zm7.24-18.08,0,0Z" transform="translate(-231.51 -212.45)" fill="#040037"/>
      <path id="R" d="M340.39,251.65a16.29,16.29,0,0,0-5-12.41c-3.27-3.07-7.64-4.62-13-4.62-8.77,0-19.13,4.13-31.51,12.58a34.13,34.13,0,0,0,.29-3.86v-3.82l-15.34,1.33-.83,1.92c-.23.54-.61,1.44-3.21,12.66-1.49,6.46-2.2,9.38-2.52,10.67a116.68,116.68,0,0,0-26.08,30.69c-7.85,13.06-11.67,23.68-11.67,32.45a17.5,17.5,0,0,0,2.94,10.43,10.71,10.71,0,0,0,9,4.64c6.23,0,12.19-3.67,17.7-10.91,3.54-4.65,7.13-11.07,10.87-19.45q1.29,6.89,3.36,14a86.22,86.22,0,0,0,11.48,24.88c5.34,7.77,11.25,11.7,17.55,11.7a49.7,49.7,0,0,0,8.6-.87l3.21-.57-1.46-13.75-2.85-.27c-4.47-.42-8.77-4.56-12.79-12.3s-6.64-18.78-7.64-32.53c11.38-2.5,22.2-8.84,32.2-18.9C334.78,274.22,340.39,262.89,340.39,251.65Zm-36.46,29.49h0c-7.21,6.35-15,9.95-23.72,10.92,2.16-6.78,4.55-15.35,7.15-25.58a98.94,98.94,0,0,1,11.54-7.66c6.73-4,10.19-4.81,11.91-4.81,2.1,0,3.56.43,4.32,1.29a6.57,6.57,0,0,1,1.31,4.5C316.44,266.65,312.23,273.83,303.93,281.14Z" transform="translate(-231.51 -212.45)" fill="#040037"/>
    </g>
    <g id="ligne-bleu">
      <g id="r-2" data-name="r">
        <path d="M304.45,361.52c-5.26,0-10.33-3.5-15.08-10.4a83.41,83.41,0,0,1-11.07-24,133,133,0,0,1-4.81-24.37c-5.14,13.09-10.08,22.79-14.69,28.85-4.91,6.46-10.06,9.73-15.31,9.73a7.74,7.74,0,0,1-6.6-3.38,14.63,14.63,0,0,1-2.38-8.69c0-8.1,3.78-18.5,11.24-30.9a113,113,0,0,1,26.16-30.52c.27-.95,1.21-4.88,2.79-11.72,1.71-7.37,2.71-11.35,3.05-12.14l.12-.28,10.29-.89v.55a79.88,79.88,0,0,1-1.27,10.42c14.25-10.71,26.19-16.14,35.49-16.14,4.57,0,8.25,1.28,10.94,3.8a13.43,13.43,0,0,1,4.07,10.23c0,10.41-5.32,21-15.8,31.57-10.32,10.38-21.51,16.63-33.24,18.57.89,15.4,3.63,27.63,8.15,36.35s9.62,13.38,15.17,13.91l.41,0,.9,8.53-.45.08A46.65,46.65,0,0,1,304.45,361.52ZM274.14,298.3l.17,2.21a129.58,129.58,0,0,0,4.95,26.31,82.31,82.31,0,0,0,10.93,23.73c4.55,6.62,9.35,10,14.26,10a45.21,45.21,0,0,0,7.44-.72l-.72-6.8c-5.75-.74-11-5.58-15.56-14.4s-7.42-21.45-8.28-37.21l0-.45.45-.07c11.68-1.82,22.83-8,33.14-18.36s15.5-20.72,15.5-30.86a12.48,12.48,0,0,0-3.76-9.5c-2.5-2.34-5.95-3.53-10.25-3.53-9.29,0-21.37,5.62-35.88,16.69l-1,.76.21-1.24a107.14,107.14,0,0,0,1.45-11l-8.58.74c-.3.92-1.06,3.8-2.89,11.71-1.71,7.37-2.65,11.28-2.87,11.94l0,.14-.12.1a111.81,111.81,0,0,0-26,30.34c-7.36,12.25-11.1,22.48-11.1,30.39a13.66,13.66,0,0,0,2.19,8.1,6.7,6.7,0,0,0,5.79,3c4.92,0,9.8-3.14,14.51-9.34s9.95-16.58,15.34-30.6ZM248.87,326c-1.49,0-3.27-.68-3.27-3.92,0-4.52,2.57-11.51,7.64-20.78s10.65-16.75,16.64-22.3l1.2-1.11-.37,1.59a162.59,162.59,0,0,1-6,18.81h0C255.19,323.12,251.11,326,248.87,326Zm20.46-45.08a88.82,88.82,0,0,0-15.22,20.86c-5,9.12-7.51,16-7.51,20.3,0,2.59,1.21,2.92,2.27,2.92,2.07,0,6.33-4.7,14.85-27.06A177.83,177.83,0,0,0,269.33,280.91Zm5.94,15.41h-.7l.23-.66c2.59-7.44,5.6-18,8.95-31.25l0-.16.12-.1a92.63,92.63,0,0,1,12.95-8.77c6.11-3.61,10.68-5.37,13.95-5.37s5.74.88,7.3,2.61a10.42,10.42,0,0,1,2.33,7.18c0,8.05-4.67,16.24-13.87,24.34h0C297.4,292.22,286.87,296.32,275.27,296.32Zm9.42-31.52c-3.25,12.86-6.18,23.12-8.71,30.52,11.06-.16,21.13-4.18,29.93-11.93h0c9-7.91,13.53-15.84,13.53-23.59a9.42,9.42,0,0,0-2.08-6.51c-1.36-1.51-3.56-2.28-6.55-2.28s-7.57,1.76-13.44,5.23A93.5,93.5,0,0,0,284.69,264.8Z" transform="translate(-231.51 -212.45)" fill="#21aac8"/>
      </g>
      <g id="e">
        <path d="M375.19,280.18q-16.31,0-32.19,14.5t-15.89,29.51q0,8,5.05,12.87T345.53,342a36.64,36.64,0,0,0,17.11-4.64,39.27,39.27,0,0,0,13.86-11.66l-3.75-2.93q-12.08,8-19.07,8a11.13,11.13,0,0,1-6.36-2.12,12.34,12.34,0,0,1-4.57-5.87q20.55-7.34,31.87-16.3T386,288.65Q386,280.18,375.19,280.18ZM364.6,306.42a86.89,86.89,0,0,1-22.66,11.41q1.31-10.27,10.19-19.81t16.54-9.53a5.58,5.58,0,0,1,5.38,5.38Q374.05,299.57,364.6,306.42Z" transform="translate(-231.51 -212.45)" fill="#fff"/>
        <path d="M345.53,342.45c-5.66,0-10.27-1.69-13.72-5s-5.2-7.79-5.2-13.23c0-10.1,5.4-20.15,16.05-29.88s21.59-14.63,32.53-14.63c7.47,0,11.26,3,11.26,9s-3.88,12.11-11.52,18.16c-7.47,5.91-18.07,11.36-31.51,16.2a11.73,11.73,0,0,0,4.18,5.16,10.68,10.68,0,0,0,6.08,2c4.55,0,10.87-2.66,18.79-7.91l.3-.2,4.41,3.46-.28.39a40,40,0,0,1-14,11.8A37.22,37.22,0,0,1,345.53,342.45Zm29.66-61.77c-10.68,0-21.4,4.83-31.85,14.37s-15.73,19.33-15.73,29.14c0,5.16,1.65,9.37,4.9,12.51s7.63,4.75,13,4.75a36.3,36.3,0,0,0,16.88-4.58,39.24,39.24,0,0,0,13.4-11.12l-3.09-2.42c-8,5.23-14.35,7.88-19,7.88A11.67,11.67,0,0,1,347,329a12.86,12.86,0,0,1-4.75-6.1l-.19-.48.49-.17c13.57-4.85,24.25-10.31,31.72-16.22s11.14-11.7,11.14-17.38C385.45,283.29,382.09,280.68,375.19,280.68Zm-33.85,37.88.1-.79c.88-6.92,4.35-13.68,10.32-20.09S363.44,288,368.67,288a6.09,6.09,0,0,1,5.88,5.88c0,4-3.16,8.25-9.66,12.95h0A87.43,87.43,0,0,1,342.1,318.3ZM368.67,289c-4.94,0-10.38,3.15-16.18,9.38-5.59,6-8.93,12.29-9.94,18.72A85.77,85.77,0,0,0,364.3,306c6.14-4.44,9.25-8.53,9.25-12.14a5.06,5.06,0,0,0-4.88-4.88Z" transform="translate(-231.51 -212.45)" fill="#21aac8"/>
      </g>
      <g id="é">
        <polygon points="151.99 54.36 140.91 47.84 119.39 60.55 124.12 63.48 151.99 54.36" fill="#fff"/>
        <path d="M355.57,276.49l-5.63-3.5,22.48-13.28,12.29,7.23Zm-3.7-3.48,3.83,2.38,26.6-8.71-9.88-5.81Z" transform="translate(-231.51 -212.45)" fill="#21aac8"/>
      </g>
      <g id="point">
        <path d="M395.73,329.56a6.69,6.69,0,1,0,4.72,2A6.46,6.46,0,0,0,395.73,329.56Z" transform="translate(-231.51 -212.45)" fill="#fff"/>
        <path d="M395.73,343.43a7.17,7.17,0,1,1,5.08-2.1A7,7,0,0,1,395.73,343.43Zm0-13.37a6.2,6.2,0,1,0,4.37,1.82A5.92,5.92,0,0,0,395.73,330.06Z" transform="translate(-231.51 -212.45)" fill="#21aac8"/>
      </g>
      <g id="é-2" data-name="é">
        <polygon points="238.71 54.36 227.62 47.84 206.1 60.55 210.83 63.48 238.71 54.36" fill="#fff"/>
        <path d="M442.28,276.49l-5.63-3.5,22.48-13.28,12.3,7.23Zm-3.7-3.48,3.83,2.38,26.6-8.71-9.88-5.81Z" transform="translate(-231.51 -212.45)" fill="#21aac8"/>
      </g>
      <g id="e-2" data-name="e">
        <path d="M461.91,280.18q-16.31,0-32.2,14.5t-15.89,29.51q0,8,5.05,12.87T432.24,342a36.61,36.61,0,0,0,17.11-4.64,39.27,39.27,0,0,0,13.86-11.66l-3.75-2.93q-12.06,8-19.07,8a11.16,11.16,0,0,1-6.36-2.12,12.38,12.38,0,0,1-4.56-5.87q20.53-7.34,31.86-16.3t11.33-17.77Q472.66,280.18,461.91,280.18Zm-10.6,26.24a86.57,86.57,0,0,1-22.66,11.41Q430,307.56,438.84,298t16.55-9.53a5.58,5.58,0,0,1,5.37,5.38Q460.76,299.57,451.31,306.42Z" transform="translate(-231.51 -212.45)" fill="#fff"/>
        <path d="M432.24,342.45c-5.65,0-10.27-1.69-13.71-5s-5.21-7.79-5.21-13.23c0-10.1,5.4-20.15,16.06-29.88s21.58-14.63,32.53-14.63c7.47,0,11.25,3,11.25,9s-3.87,12.11-11.52,18.16c-7.46,5.91-18.07,11.36-31.51,16.2a11.8,11.8,0,0,0,4.18,5.16,10.71,10.71,0,0,0,6.08,2c4.55,0,10.87-2.66,18.79-7.91l.3-.2,4.42,3.46-.29.39a39.9,39.9,0,0,1-14,11.8A37.26,37.26,0,0,1,432.24,342.45Zm29.67-61.77c-10.69,0-21.41,4.83-31.86,14.37s-15.73,19.33-15.73,29.14c0,5.16,1.65,9.37,4.9,12.51s7.64,4.75,13,4.75a36.3,36.3,0,0,0,16.88-4.58,39.24,39.24,0,0,0,13.4-11.12l-3.08-2.42c-7.95,5.23-14.36,7.88-19.05,7.88a11.7,11.7,0,0,1-6.64-2.21,12.86,12.86,0,0,1-4.75-6.1l-.19-.48.49-.17C442.88,317.4,453.55,311.94,461,306s11.14-11.7,11.14-17.38C472.16,283.29,468.81,280.68,461.91,280.68Zm-33.85,37.88.1-.79c.87-6.92,4.35-13.68,10.31-20.09S450.16,288,455.39,288a6.07,6.07,0,0,1,5.87,5.88c0,4-3.16,8.25-9.66,12.95h0a87.36,87.36,0,0,1-22.78,11.48ZM455.39,289c-4.94,0-10.39,3.15-16.18,9.38-5.59,6-8.93,12.29-9.95,18.72A85.84,85.84,0,0,0,451,306c6.13-4.44,9.24-8.53,9.24-12.14a5.06,5.06,0,0,0-4.87-4.88Z" transform="translate(-231.51 -212.45)" fill="#21aac8"/>
      </g>
      <g id="d-2" data-name="d">
        <path d="M490.75,344.57c-4.36,0-7.88-1.37-10.46-4.06s-3.89-6.38-3.89-10.95c0-7.14,2.88-14.64,8.57-22.3a70.39,70.39,0,0,1,21-18.8c8.3-4.85,16.17-7.32,23.39-7.32h.46l.57,6.64-.47.06c-9.21,1.18-17.92,5.23-25.9,12s-12,13.75-12,20.73a10,10,0,0,0,2.31,6.92,7.66,7.66,0,0,0,6,2.52c5.13,0,12-5.69,20.46-16.91a126.39,126.39,0,0,0,10.8-18c4-7.83,7.31-14.27,9.78-19.15l7.17-14.18q3.51-6.93,9.21-18.26T569,221.27l.2-.39,9.27,3.27L576,228.9a646.57,646.57,0,0,0-30.46,64.66c-5.5,13.57-8.28,23.88-8.28,30.63a5.75,5.75,0,0,0,1.19,3.83,4.68,4.68,0,0,0,3.77,1.37c1.76,0,3.86-1.21,6.25-3.6l.34-.34,3.55,3.34-.15.33a23.76,23.76,0,0,1-7.48,8.91c-3.55,2.72-7.06,4.1-10.42,4.1-6.6,0-9.95-3.9-9.95-11.59,0-3.79.91-9.41,2.72-16.73C514.79,334.23,502.59,344.57,490.75,344.57Zm38.18-62.42c-6.93.1-14.47,2.51-22.44,7.18a69.13,69.13,0,0,0-20.71,18.53c-5.56,7.48-8.38,14.78-8.38,21.7,0,4.31,1.21,7.76,3.61,10.25s5.67,3.76,9.74,3.76c12,0,24.56-11.21,37.22-33.32l1.9-3.31-1,3.68c-2.37,8.94-3.57,15.64-3.57,19.92,0,7.13,2.93,10.59,8.95,10.59,3.14,0,6.44-1.31,9.81-3.89a23,23,0,0,0,7-8.21l-2.32-2.19c-2.48,2.39-4.64,3.55-6.61,3.55a5.61,5.61,0,0,1-4.54-1.73,6.73,6.73,0,0,1-1.42-4.47c0-6.88,2.81-17.31,8.35-31a649.64,649.64,0,0,1,30.5-64.76l2-3.72-7.35-2.6q-5.44,10.74-11.05,21.86-5.7,11.33-9.21,18.26l-7.17,14.18c-2.47,4.88-5.76,11.33-9.78,19.15a125.53,125.53,0,0,1-10.89,18.17C512.87,325.38,505.91,331,500.37,331a8.74,8.74,0,0,1-6.73-2.85,10.93,10.93,0,0,1-2.57-7.59c0-7.29,4.14-14.52,12.32-21.49,8-6.81,16.72-10.91,25.94-12.19Z" transform="translate(-231.51 -212.45)" fill="#21aac8"/>
      </g>
      <g id="i1-3" data-name="i1">
        <path d="M581.05,342.29c-6.38,0-9.62-4.45-9.62-13.21,0-10.58,4.4-24.53,13.09-41.47,2-3.68,3.1-5.87,3.42-6.52l.24-.48,7.89,4.77-.23.42c-2.26,4.09-5.08,10.7-8.37,19.65s-4.94,14.7-4.94,17.19.5,4.12,1.49,5.1a4.8,4.8,0,0,0,3.56,1.49c2.77,0,6.75-2.91,11.85-8.64l.32-.36,3.94,3.35-.19.35A41.58,41.58,0,0,1,593,336.88C588.66,340.47,584.63,342.29,581.05,342.29ZM588.59,282q-.76,1.49-3.18,6.05c-8.61,16.79-13,30.59-13,41,0,8.21,2.82,12.21,8.62,12.21,3.35,0,7.16-1.74,11.34-5.18a40.43,40.43,0,0,0,10-12.29l-2.58-2.2c-5.21,5.79-9.23,8.61-12.27,8.61a5.84,5.84,0,0,1-4.27-1.78c-1.18-1.17-1.78-3.13-1.78-5.81s1.64-8.38,5-17.53a160.91,160.91,0,0,1,8.19-19.37Z" transform="translate(-231.51 -212.45)" fill="#21aac8"/>
      </g>
      <g id="i11-2" data-name="i11">
        <path d="M600.94,255.89a7.25,7.25,0,0,0-5.87,2.77,10.43,10.43,0,0,0-2.28,6.85q0,7.33,9.13,7.33a6,6,0,0,0,5.21-2.93,11.22,11.22,0,0,0,2-6.36,7.21,7.21,0,0,0-2.28-5.54A8.3,8.3,0,0,0,600.94,255.89Z" transform="translate(-231.51 -212.45)" fill="#fff"/>
        <path d="M601.92,273.34c-6.39,0-9.63-2.63-9.63-7.83a11,11,0,0,1,2.4-7.17,7.76,7.76,0,0,1,6.25-2.95,8.83,8.83,0,0,1,6.21,2.25,7.74,7.74,0,0,1,2.44,5.91,11.77,11.77,0,0,1-2,6.63A6.49,6.49,0,0,1,601.92,273.34Zm-1-16.95a6.73,6.73,0,0,0-5.48,2.59,10,10,0,0,0-2.17,6.53c0,4.6,2.82,6.83,8.63,6.83a5.5,5.5,0,0,0,4.8-2.71,10.81,10.81,0,0,0,1.87-6.08,6.69,6.69,0,0,0-2.12-5.18A7.87,7.87,0,0,0,600.94,256.39Z" transform="translate(-231.51 -212.45)" fill="#21aac8"/>
      </g>
      <g id="f-2" data-name="f">
        <path d="M611.2,386.78V386c0-9.35,4.06-27.61,12.08-54.26,3.84-12.43,6.34-20.8,7.44-24.92a41.75,41.75,0,0,1-9.73,1.28c-6.5,0-9.79-2.64-9.79-7.83,0-2.89,2.08-6.21,6.35-10.15a95.58,95.58,0,0,1,21.28-14.65c6.35-21.66,11-35.44,13.82-41,3.83-7.54,7.4-12.43,10.61-14.53A27.52,27.52,0,0,1,678,215.45c5.14,0,8.84,1.5,11,4.45a15.42,15.42,0,0,1,2.86,10.26c-.54,13.77-15.43,29.94-44.24,48l-5,18.83,21.48-2.48-5.39,8.74-18.15,2.43c-1.42,5.84-3.8,14.67-7.1,26.25-7.23,25.48-10.9,41.83-10.9,48.6v.31Zm20.92-81.38-.21.82c-1,3.78-3.56,12.45-7.67,25.78-7.76,25.78-11.81,43.65-12,53.14l9.42-4.86c.11-7,3.79-23.38,10.94-48.57,3.35-11.8,5.77-20.73,7.17-26.55l.08-.33,18.36-2.46,4.06-6.58-20.9,2.41,5.46-20.62.17-.11c28.62-18,43.4-33.9,43.93-47.35a14.5,14.5,0,0,0-2.67-9.63c-2-2.68-5.39-4-10.19-4a26.55,26.55,0,0,0-14.24,4.33c-3.06,2-6.51,6.76-10.25,14.15-2.8,5.48-7.45,19.27-13.83,41l-.06.2-.19.1a94.91,94.91,0,0,0-21.24,14.59c-4,3.69-6,6.86-6,9.42,0,4.59,2.87,6.83,8.79,6.83a42.1,42.1,0,0,0,10.31-1.45Zm2-6.47h-.39c-6.71,0-10.11-1.59-10.11-4.74,0-1.48,1.2-3.15,3.69-5.11a42.84,42.84,0,0,1,9.81-5.45l.93-.39Zm2.47-14a39.86,39.86,0,0,0-8.66,4.91c-2.74,2.17-3.31,3.55-3.31,4.33,0,2.43,2.93,3.69,8.72,3.74Zm12.56-15.54.41-1.28c.76-2.4,2-6.84,3.74-13.19a89,89,0,0,1,6.07-16.55c3-6,7.71-9.08,14-9.08a7.14,7.14,0,0,1,5.37,1.86c1.21,1.27,1.77,3.18,1.65,5.67-.22,4.79-3.84,10.45-10.75,16.81a131.44,131.44,0,0,1-19.31,15Zm24.19-39.1c-5.93,0-10.21,2.79-13.08,8.52a89.35,89.35,0,0,0-6,16.38h0c-1.45,5.35-2.57,9.35-3.35,11.93a134,134,0,0,0,18-14.23c6.71-6.17,10.22-11.6,10.43-16.12.1-2.21-.36-3.87-1.37-4.93A6.19,6.19,0,0,0,673.31,230.31Z" transform="translate(-231.51 -212.45)" fill="#21aac8"/>
      </g>
      <g id="i2-2" data-name="i2">
        <path d="M680.32,342.29c-6.39,0-9.63-4.45-9.63-13.21,0-10.58,4.41-24.53,13.1-41.47,1.94-3.68,3.09-5.87,3.42-6.52l.24-.48,7.88,4.77-.23.42c-2.26,4.09-5.07,10.7-8.36,19.65s-4.94,14.7-4.94,17.19.5,4.12,1.48,5.1a4.81,4.81,0,0,0,3.56,1.49c2.77,0,6.76-2.91,11.85-8.64l.32-.36,3.94,3.35-.18.35a41.61,41.61,0,0,1-10.48,12.95C687.93,340.47,683.9,342.29,680.32,342.29ZM687.85,282c-.5,1-1.57,3-3.18,6.05-8.61,16.79-13,30.59-13,41,0,8.21,2.82,12.21,8.63,12.21,3.34,0,7.15-1.74,11.34-5.18a40.73,40.73,0,0,0,10-12.29l-2.59-2.2c-5.21,5.79-9.22,8.61-12.27,8.61a5.84,5.84,0,0,1-4.27-1.78c-1.18-1.17-1.77-3.13-1.77-5.81s1.63-8.38,5-17.53a159,159,0,0,1,8.2-19.37Z" transform="translate(-231.51 -212.45)" fill="#21aac8"/>
      </g>
      <g id="point-2" data-name="point">
        <path d="M700.21,255.89a7.24,7.24,0,0,0-5.87,2.77,10.38,10.38,0,0,0-2.29,6.85q0,7.33,9.13,7.33a6,6,0,0,0,5.22-2.93,11.29,11.29,0,0,0,2-6.36,7.21,7.21,0,0,0-2.28-5.54A8.29,8.29,0,0,0,700.21,255.89Z" transform="translate(-231.51 -212.45)" fill="#fff"/>
        <path d="M701.18,273.34c-6.39,0-9.63-2.63-9.63-7.83a11,11,0,0,1,2.4-7.17,7.77,7.77,0,0,1,6.26-2.95,8.82,8.82,0,0,1,6.2,2.25,7.74,7.74,0,0,1,2.44,5.91,11.7,11.7,0,0,1-2,6.63A6.48,6.48,0,0,1,701.18,273.34Zm-1-16.95a6.75,6.75,0,0,0-5.49,2.59,10,10,0,0,0-2.17,6.53c0,4.6,2.83,6.83,8.63,6.83a5.48,5.48,0,0,0,4.8-2.71,10.81,10.81,0,0,0,1.87-6.08,6.69,6.69,0,0,0-2.12-5.18A7.86,7.86,0,0,0,700.21,256.39Z" transform="translate(-231.51 -212.45)" fill="#21aac8"/>
      </g>
      <g id="c-2" data-name="c">
        <path d="M730.44,342.29a19.16,19.16,0,0,1-13.71-5.19c-3.62-3.45-5.45-8.23-5.45-14.22s2.61-12.47,7.76-19.37a61.66,61.66,0,0,1,20-17.09h0c8.13-4.47,16.25-6.74,24.12-6.74,1.1,0,2.72.1,4.94.32l.49.05-.56,7.29-.45,0c-11.78.54-21.69,4.17-29.44,10.8s-11.64,13.72-11.64,21.14a9.58,9.58,0,0,0,10.09,10.09c4.85,0,11.2-3.68,18.89-10.95l.33-.3,4.54,3.78-.15.35a32.14,32.14,0,0,1-12.75,14.57C741.6,340.46,735.89,342.29,730.44,342.29Zm9-55a60.82,60.82,0,0,0-19.64,16.81c-5,6.72-7.56,13-7.56,18.77s1.73,10.24,5.14,13.5a18.17,18.17,0,0,0,13,4.91c5.26,0,10.79-1.78,16.44-5.3a31.11,31.11,0,0,0,12.21-13.78l-3.28-2.74c-7.74,7.25-14.22,10.92-19.26,10.92a10.56,10.56,0,0,1-11.09-11.09c0-7.73,4-15.09,12-21.9s17.79-10.4,29.61-11l.42-5.43c-1.92-.18-3.39-.27-4.36-.27-7.7,0-15.65,2.22-23.64,6.62Z" transform="translate(-231.51 -212.45)" fill="#21aac8"/>
      </g>
      <g id="a-2" data-name="a">
        <path d="M825.22,342.45c-6.71,0-10.11-3.57-10.11-10.6a30.35,30.35,0,0,1,1.72-9.28l-4.45,4.57c-5.89,6-11.06,10.09-15.38,12.17a29.75,29.75,0,0,1-12.85,3.14c-4.26,0-7.54-1.23-9.75-3.67s-3.3-5.79-3.3-10c0-7.69,3-15.38,8.9-22.88a67.82,67.82,0,0,1,22.66-18.31,62.06,62.06,0,0,1,27.61-7.23h.48l.38,6.29-7.27,1.55a58.52,58.52,0,0,0-25.94,12.93c-7.4,6.39-11.15,12.82-11.15,19.1s2.39,9.2,7.32,9.2c4.74,0,10.71-3.41,17.75-10.13a90.69,90.69,0,0,0,17.83-24l.24-.47,7.7,4.58-.2.42c-6.67,13.44-10.06,22.09-10.06,25.69a4.69,4.69,0,0,0,1.4,3.48,4,4,0,0,0,2.75,1.4,7.2,7.2,0,0,0,1.88-.14,6.11,6.11,0,0,0,.91-.38,12.2,12.2,0,0,0,1.17-.7,15.07,15.07,0,0,0,1.25-.94c.41-.35,1-.85,1.91-1.49s1.56-1.19,2.1-1.62l.3-.24,4.39,3.24-.17.37c-1.56,3.33-4.44,6.52-8.56,9.49S828.68,342.45,825.22,342.45Zm-5.86-23.91-.84,2.24a32.58,32.58,0,0,0-2.41,11.07c0,6.46,3,9.6,9.11,9.6,3.25,0,6.91-1.45,10.88-4.3a25.16,25.16,0,0,0,8-8.73l-3.11-2.3c-.5.39-1.1.86-1.83,1.4s-1.46,1.12-1.84,1.45a15.5,15.5,0,0,1-1.36,1c-.51.34-.93.59-1.27.77a8,8,0,0,1-1,.43,7.27,7.27,0,0,1-2.19.19,4.92,4.92,0,0,1-3.45-1.7,5.68,5.68,0,0,1-1.7-4.18c0-3.77,3.26-12.19,10-25.72l-6-3.57A91.54,91.54,0,0,1,812.53,320c-7.24,6.91-13.44,10.41-18.44,10.41-5.52,0-8.32-3.43-8.32-10.2,0-6.59,3.87-13.27,11.5-19.85a59.27,59.27,0,0,1,26.38-13.15l6.43-1.38-.27-4.47a61.1,61.1,0,0,0-26.69,7.11,66.84,66.84,0,0,0-22.33,18c-5.77,7.32-8.69,14.81-8.69,22.27,0,4,1,7.13,3,9.36s5,3.34,9,3.34a28.64,28.64,0,0,0,12.41-3c4.22-2,9.3-6.06,15.1-12Z" transform="translate(-231.51 -212.45)" fill="#21aac8"/>
      </g>
    </g>
  </g>
  <g id="degra">
    <path id="r-3" data-name="r" d="M336.89,251.65a12.89,12.89,0,0,0-3.91-9.86q-3.92-3.67-10.6-3.67-14.17,0-36.19,16.79a90.7,90.7,0,0,0,1.47-11.57l-9.45.81q-.49,1.14-3,12.07t-2.85,11.89a111.94,111.94,0,0,0-26.16,30.49Q235,317.17,235,329.24a14.08,14.08,0,0,0,2.28,8.39,7.24,7.24,0,0,0,6.2,3.18q7.66,0,14.91-9.53t15.41-30.73a129.33,129.33,0,0,0,5,26.41,82.82,82.82,0,0,0,11,23.88q7,10.19,14.67,10.18a46.59,46.59,0,0,0,8-.81l-.82-7.66q-8.64-.82-15.56-14.18t-8.24-37q17.78-2.78,33.42-18.5T336.89,251.65Zm-72.7,46.46q-10.44,27.38-15.32,27.38-2.77,0-2.77-3.42,0-6.69,7.58-20.54t16.54-22.17A162,162,0,0,1,264.19,298.11Zm42.05-14.35q-13.68,12.08-31,12.06,3.92-11.24,9-31.29a91.9,91.9,0,0,1,12.88-8.72q9-5.3,13.69-5.3t6.92,2.45a9.84,9.84,0,0,1,2.21,6.84Q319.94,271.7,306.24,283.76Z" transform="translate(-231.51 -212.45)" stroke="#21aac8" stroke-miterlimit="10" fill="url(#Dégradé_sans_nom_2)"/>
    <path id="d-3" data-name="d" d="M542.18,329.89a5.13,5.13,0,0,1-4.16-1.55,6.21,6.21,0,0,1-1.3-4.15q0-10.28,8.31-30.81a647.51,647.51,0,0,1,30.48-64.71l2.29-4.24-8.32-2.93q-5.54,10.92-11.24,22.25L549,262l-7.18,14.18q-3.66,7.26-9.78,19.15a124.08,124.08,0,0,1-10.84,18.1q-12.87,17.11-20.86,17.11a8.17,8.17,0,0,1-6.36-2.69,10.36,10.36,0,0,1-2.44-7.25q0-10.75,12.14-21.11t26.16-12.14l-.48-5.71q-10.77,0-23.15,7.26a69.22,69.22,0,0,0-20.86,18.66q-8.49,11.42-8.48,22,0,6.69,3.75,10.6t10.1,3.91q18.42,0,37.66-33.58-3.58,13.54-3.59,20.05,0,11.08,9.45,11.09c3.27,0,6.63-1.33,10.11-4a23.09,23.09,0,0,0,7.34-8.72l-2.94-2.77Q545,329.89,542.18,329.89Z" transform="translate(-231.51 -212.45)" stroke="#21aac8" stroke-miterlimit="10" fill="url(#Dégradé_sans_nom_2-2)"/>
    <path id="i" d="M587.58,329.73a5.33,5.33,0,0,1-3.92-1.63c-1.08-1.09-1.63-2.91-1.63-5.46s1.66-8.34,5-17.36,6.12-15.59,8.4-19.72l-7-4.24q-.5,1-3.42,6.52-13.05,25.43-13,41.24,0,12.71,9.12,12.71,5.22,0,11.66-5.3a40.87,40.87,0,0,0,10.35-12.79l-3.26-2.77Q592,329.72,587.58,329.73Z" transform="translate(-231.51 -212.45)" stroke="#21aac8" stroke-miterlimit="10" fill="url(#Dégradé_sans_nom_2-3)"/>
    <path id="i-2" data-name="i" d="M686.84,329.73a5.31,5.31,0,0,1-3.91-1.63q-1.63-1.64-1.63-5.46t5-17.36q5-13.53,8.39-19.72l-7-4.24q-.48,1-3.42,6.52-13,25.43-13,41.24,0,12.71,9.13,12.71,5.2,0,11.65-5.3a40.73,40.73,0,0,0,10.35-12.79l-3.26-2.77Q691.25,329.72,686.84,329.73Z" transform="translate(-231.51 -212.45)" stroke="#21aac8" stroke-miterlimit="10" fill="url(#Dégradé_sans_nom_2-4)"/>
    <path id="c-3" data-name="c" d="M739.24,287.51a60.93,60.93,0,0,0-19.8,17q-7.66,10.26-7.66,19.07t5.29,13.85a18.59,18.59,0,0,0,13.37,5.05q8.07,0,16.71-5.37a31.45,31.45,0,0,0,12.55-14.35l-3.91-3.26Q744,330.55,736.55,330.55A10.07,10.07,0,0,1,726,320q0-11.4,11.81-21.52t29.75-10.92l.49-6.35q-3.25-.33-4.89-.33Q751.39,280.83,739.24,287.51Z" transform="translate(-231.51 -212.45)" stroke="#21aac8" stroke-miterlimit="10" fill="url(#Dégradé_sans_nom_2-5)"/>
    <path id="a-3" data-name="a" d="M841,325.08c-.54.44-1.25,1-2.11,1.63s-1.5,1.14-1.88,1.47a14.67,14.67,0,0,1-1.3,1,12,12,0,0,1-1.23.73,4.85,4.85,0,0,1-3,.57,4.42,4.42,0,0,1-3.1-1.55,5.19,5.19,0,0,1-1.55-3.83q0-5.54,10.11-25.91l-6.85-4.08a90.49,90.49,0,0,1-17.93,24.12q-10.75,10.28-18.09,10.27-7.83,0-7.82-9.7t11.32-19.47a58.7,58.7,0,0,1,26.17-13l6.84-1.47-.32-5.38a61.34,61.34,0,0,0-27.39,7.17,67.08,67.08,0,0,0-22.49,18.18q-8.8,11.16-8.8,22.57,0,6.2,3.17,9.7t9.38,3.51a29.06,29.06,0,0,0,12.63-3.1q6.44-3.09,15.24-12.06l6-6.2a32.93,32.93,0,0,0-2.44,11.25q0,10.11,9.61,10.11,5.06,0,11.17-4.41t8.39-9.29Z" transform="translate(-231.51 -212.45)" stroke="#21aac8" stroke-miterlimit="10" fill="url(#Dégradé_sans_nom_2-6)"/>
    <path id="f-3" data-name="f" d="M647.23,277.89q43.37-27.21,44.17-47.75a14.86,14.86,0,0,0-2.77-9.95Q685.54,216,678,216a27,27,0,0,0-14.51,4.4q-4.72,3.1-10.43,14.35-4.25,8.31-13.85,41.07a94.78,94.78,0,0,0-21.36,14.68q-6.2,5.7-6.19,9.78,0,7.33,9.29,7.33a42.08,42.08,0,0,0,10.43-1.47q-1.47,5.71-7.66,25.76Q611.7,371.94,611.7,386l10.43-5.38q0-10.26,10.92-48.73,5.06-17.78,7.17-26.57l18.26-2.45,4.73-7.66L642,297.62Zm6.52-22.82a89.68,89.68,0,0,1,6-16.46q4.41-8.81,13.53-8.8,6.86,0,6.52,7t-10.59,16.46a130.54,130.54,0,0,1-19.24,15Q651.14,264.7,653.75,255.07Zm-20,43.36q-9.62,0-9.61-4.24c0-1.3,1.16-2.87,3.5-4.72a42.27,42.27,0,0,1,9.7-5.38Z" transform="translate(-231.51 -212.45)" stroke="#21aac8" stroke-miterlimit="10" fill="url(#Dégradé_sans_nom_2-7)"/>
  </g>
</svg>
