<svg xmlns="http://www.w3.org/2000/svg" xmlns:xlink="http://www.w3.org/1999/xlink" viewBox="0 0 108.88 129.9"><defs><style>.cls-1{fill:none;}.cls-1,.cls-2{stroke:#040037;stroke-width:7px;}.cls-1,.cls-2,.cls-3,.cls-4{stroke-miterlimit:10;}.cls-3{fill:#fff;}.cls-3,.cls-4{stroke:#21aac8;}.cls-4{fill:url(#Dégradé_sans_nom_2);}</style><linearGradient id="Dégradé_sans_nom_2" x1="494.15" y1="254.11" x2="406.83" y2="342.2" gradientUnits="userSpaceOnUse"><stop offset="0" stop-color="#8ec8d0"/><stop offset="1" stop-color="#040037"/></linearGradient></defs><g id="Calque_1" data-name="Calque 1"><path class="cls-1" d="M449.7,262.9q-4.72,0-13.69,5.3a91,91,0,0,0-12.88,8.72q-5.06,20-9,31.29,17.26,0,31-12.06t13.69-24a9.88,9.88,0,0,0-2.2-6.85Q454.43,262.9,449.7,262.9Z" transform="translate(-370.41 -247.01)"/><path class="cls-1" d="M392.57,313.92Q385,327.77,385,334.46q0,3.42,2.77,3.42,4.89,0,15.32-27.39a157.52,157.52,0,0,0,6-18.74Q400.16,300.06,392.57,313.92Z" transform="translate(-370.41 -247.01)"/><path class="cls-2" d="M475.78,264a12.85,12.85,0,0,0-3.91-9.86q-3.92-3.68-10.6-3.67-14.17,0-36.18,16.79a90.7,90.7,0,0,0,1.47-11.57l-9.46.81q-.5,1.14-3,12.06t-2.86,11.9A112,112,0,0,0,385.07,311q-11.16,18.58-11.16,30.65a14.08,14.08,0,0,0,2.28,8.39,7.22,7.22,0,0,0,6.19,3.18q7.67,0,14.92-9.53t15.4-30.73a130,130,0,0,0,5,26.41,82.63,82.63,0,0,0,11,23.87q7,10.18,14.67,10.19a46.4,46.4,0,0,0,8-.81l-.81-7.66q-8.65-.82-15.57-14.18t-8.23-37q17.76-2.76,33.41-18.5T475.78,264Zm-72.7,46.45q-10.43,27.39-15.32,27.39-2.77,0-2.77-3.42,0-6.69,7.58-20.54t16.54-22.17A157.52,157.52,0,0,1,403.08,310.49Zm42.06-14.34q-13.69,12.06-31,12.06,3.9-11.25,9-31.29A91,91,0,0,1,436,268.2q9-5.29,13.69-5.3t6.93,2.44a9.88,9.88,0,0,1,2.2,6.85Q458.83,284.09,445.14,296.15Z" transform="translate(-370.41 -247.01)"/><path class="cls-3" d="M475.78,264a12.85,12.85,0,0,0-3.91-9.86q-3.92-3.68-10.6-3.67-14.17,0-36.18,16.79a90.7,90.7,0,0,0,1.47-11.57l-9.46.81q-.5,1.14-3,12.06t-2.86,11.9A112,112,0,0,0,385.07,311q-11.16,18.58-11.16,30.65a14.08,14.08,0,0,0,2.28,8.39,7.22,7.22,0,0,0,6.19,3.18q7.67,0,14.92-9.53t15.4-30.73a130,130,0,0,0,5,26.41,82.63,82.63,0,0,0,11,23.87q7,10.18,14.67,10.19a46.4,46.4,0,0,0,8-.81l-.81-7.66q-8.65-.82-15.57-14.18t-8.23-37q17.76-2.76,33.41-18.5T475.78,264Zm-72.7,46.45q-10.43,27.39-15.32,27.39-2.77,0-2.77-3.42,0-6.69,7.58-20.54t16.54-22.17A157.52,157.52,0,0,1,403.08,310.49Zm42.06-14.34q-13.69,12.06-31,12.06,3.9-11.25,9-31.29A91,91,0,0,1,436,268.2q9-5.29,13.69-5.3t6.93,2.44a9.88,9.88,0,0,1,2.2,6.85Q458.83,284.09,445.14,296.15Z" transform="translate(-370.41 -247.01)"/></g><g id="Calque_4" data-name="Calque 4"><path class="cls-4" d="M475.78,264a12.85,12.85,0,0,0-3.91-9.86q-3.92-3.68-10.6-3.67-14.17,0-36.18,16.79a90.7,90.7,0,0,0,1.47-11.57l-9.46.81q-.5,1.14-3,12.06t-2.86,11.9A112,112,0,0,0,385.07,311q-11.16,18.58-11.16,30.65a14.08,14.08,0,0,0,2.28,8.39,7.22,7.22,0,0,0,6.19,3.18q7.67,0,14.92-9.53t15.4-30.73a130,130,0,0,0,5,26.41,82.63,82.63,0,0,0,11,23.87q7,10.18,14.67,10.19a46.4,46.4,0,0,0,8-.81l-.81-7.66q-8.65-.82-15.57-14.18t-8.23-37q17.76-2.76,33.41-18.5T475.78,264Zm-72.7,46.45q-10.43,27.39-15.32,27.39-2.77,0-2.77-3.42,0-6.69,7.58-20.54t16.54-22.17A157.52,157.52,0,0,1,403.08,310.49Zm42.06-14.34q-13.69,12.06-31,12.06,3.9-11.25,9-31.29A91,91,0,0,1,436,268.2q9-5.29,13.69-5.3t6.93,2.44a9.88,9.88,0,0,1,2.2,6.85Q458.83,284.09,445.14,296.15Z" transform="translate(-370.41 -247.01)"/></g></svg>