<svg width="1440" height="178" viewBox="0 0 1440 178" fill="none" xmlns="http://www.w3.org/2000/svg">
<path d="M0 0L34.4 11.52C68.8 22.88 137.6 45.92 206.08 55.2C274.72 64.48 342.88 60.32 411.52 49.28C480 38.4 548.8 20.8 617.28 22.4C685.92 24 754.08 44.8 822.72 43.68C891.2 42.72 960 19.68 1028.48 15.52C1097.12 11.2 1165.28 25.6 1233.92 34.4C1302.4 43.2 1371.2 46.4 1405.6 48L1440 49.6V177.6H1405.6C1371.2 177.6 1302.4 177.6 1233.92 177.6C1165.28 177.6 1097.12 177.6 1028.48 177.6C960 177.6 891.2 177.6 822.72 177.6C754.08 177.6 685.92 177.6 617.28 177.6C548.8 177.6 480 177.6 411.52 177.6C342.88 177.6 274.72 177.6 206.08 177.6C137.6 177.6 68.8 177.6 34.4 177.6H0V0Z" fill="#42C2E2"/>
</svg>
