<?xml version="1.0" encoding="utf-8"?>
<!-- Generator: Adobe Illustrator 24.1.0, SVG Export Plug-In . SVG Version: 6.00 Build 0)  -->
<svg version="1.1" id="Calque_1" xmlns="http://www.w3.org/2000/svg" xmlns:xlink="http://www.w3.org/1999/xlink" x="0px" y="0px"
	 viewBox="0 0 1440 118" style="enable-background:new 0 0 1440 118;" xml:space="preserve">
<style type="text/css">
	.st0{fill:#4AB7E7;}
</style>
<path class="st0" d="M1405.8,6.7c-34.2,5.8-102.6,17.6-170.6,21c-68.2,3.5-135.9-1.3-204.2,1.9C963,32.8,894.6,44,826.6,48.8
	c-68.2,4.8-135.9,3.2-204.2,1.1c-68.1-2.2-136.4-4.8-204.5-3.2c-68.2,1.6-135.9,7.4-204.2,3.4c-66.1-3.9-132.5-17-167.6-24.2
	c-2-0.4-3.9-1.2-5.5-2.4L15.3,5.3c-4.1-2.9-9-4.5-14.1-4.5H0v116.8h9h34.2c34.2,0,102.6,0,170.6,0c68.2,0,135.9,0,204.2,0
	c68.1,0,136.4,0,204.5,0c68.2,0,135.9,0,204.2,0c68.1,0,136.4,0,204.5,0c68.2,0,135.9,0,204.2,0c68.1,0,136.4,0,170.6,0h34.2V0.8
	L1405.8,6.7z"/>
</svg>
