<svg width="1440" height="237" viewBox="0 0 1440 237" fill="none" xmlns="http://www.w3.org/2000/svg">
<path d="M0 23.8L34.4 21.08C68.8 18.52 137.6 13.08 206.08 7.47999C274.72 1.87999 342.88 -3.88001 411.52 5.07999C480 14.2 548.8 38.2 617.28 39C685.92 39.8 754.08 17.4 822.72 21.88C891.2 26.52 960 57.88 1028.48 71.8C1097.12 85.72 1165.28 81.88 1233.92 79C1302.4 76.12 1371.2 73.88 1405.6 72.92L1440 71.8V236.6H1405.6C1371.2 236.6 1302.4 236.6 1233.92 236.6C1165.28 236.6 1097.12 236.6 1028.48 236.6C960 236.6 891.2 236.6 822.72 236.6C754.08 236.6 685.92 236.6 617.28 236.6C548.8 236.6 480 236.6 411.52 236.6C342.88 236.6 274.72 236.6 206.08 236.6C137.6 236.6 68.8 236.6 34.4 236.6H0V23.8Z" fill="#4CCBDA"/>
</svg>
