<svg width="1440" height="396" viewBox="0 0 1440 396" fill="none" xmlns="http://www.w3.org/2000/svg">
<path d="M0 8.53905L34.4 6.13743C68.8 3.73581 137.6 -1.06744 206.08 0.213422C274.72 1.65439 342.88 9.01935 411.52 29.8334C480 50.6474 548.8 84.9105 617.28 100.921C685.92 116.932 754.08 114.691 822.72 107.806C891.2 100.921 960 89.0733 1028.48 89.0733C1097.12 89.0733 1165.28 100.921 1233.92 109.087C1302.4 117.412 1371.2 122.216 1405.6 124.617L1440 127.019V396H1405.6C1371.2 396 1302.4 396 1233.92 396C1165.28 396 1097.12 396 1028.48 396C960 396 891.2 396 822.72 396C754.08 396 685.92 396 617.28 396C548.8 396 480 396 411.52 396C342.88 396 274.72 396 206.08 396C137.6 396 68.8 396 34.4 396H0V8.53905Z" fill="#7CDAC5"/>
</svg>
