<svg width="1440" height="322" viewBox="0 0 1440 322" fill="none" xmlns="http://www.w3.org/2000/svg">
<path d="M0 0L34.4 17.28C68.8 34.72 137.6 69.28 206.08 82.08C274.72 94.88 342.88 85.92 411.52 78.4C480 70.88 548.8 65.12 617.28 62.08C685.92 59.2 754.08 59.2 822.72 56.32C891.2 53.28 960 47.52 1028.48 47.68C1097.12 48 1165.28 54.4 1233.92 54.72C1302.4 54.88 1371.2 49.12 1405.6 46.08L1440 43.2V321.6H1405.6C1371.2 321.6 1302.4 321.6 1233.92 321.6C1165.28 321.6 1097.12 321.6 1028.48 321.6C960 321.6 891.2 321.6 822.72 321.6C754.08 321.6 685.92 321.6 617.28 321.6C548.8 321.6 480 321.6 411.52 321.6C342.88 321.6 274.72 321.6 206.08 321.6C137.6 321.6 68.8 321.6 34.4 321.6H0V0Z" fill="#62D3D0"/>
</svg>
