<!--?xml version="1.0" standalone="no"?-->
              <svg id="sw-js-blob-svg" viewBox="0 0 100 100" xmlns="http://www.w3.org/2000/svg" version="1.1">
                    <defs> 
                        <linearGradient id="sw-gradient" x1="0" x2="1" y1="1" y2="0">
                            <stop id="stop1" stop-color="rgba(74.18, 196.999, 208.364, 1)" offset="0%"></stop>
                            <stop id="stop2" stop-color="rgba(53.347, 251.584, 255, 1)" offset="100%"></stop>
                        </linearGradient>
                    </defs>
                <path fill="none" d="M24.5,-31.7C29.5,-25,29.8,-15.2,30,-6.4C30.3,2.3,30.4,10,27.5,16.6C24.5,23.2,18.5,28.8,11.4,31.5C4.3,34.1,-4,33.8,-10.6,30.8C-17.3,27.7,-22.5,21.8,-28.4,14.8C-34.4,7.8,-41.3,-0.4,-41.4,-8.6C-41.5,-16.8,-34.8,-25.2,-26.8,-31.3C-18.8,-37.5,-9.4,-41.4,0.2,-41.6C9.7,-41.9,19.5,-38.3,24.5,-31.7Z" width="100%" height="100%" transform="translate(50 50)" style="transition: all 0.3s ease 0s;" stroke-width="1" stroke="url(#sw-gradient)"></path>
              </svg>