<?xml version="1.0" encoding="utf-8"?>
<!-- Generator: Adobe Illustrator 24.1.0, SVG Export Plug-In . SVG Version: 6.00 Build 0)  -->
<svg version="1.1" id="Calque_1" xmlns="http://www.w3.org/2000/svg" xmlns:xlink="http://www.w3.org/1999/xlink" x="0px" y="0px"
	 viewBox="0 0 1440 237" style="enable-background:new 0 0 1440 237;" xml:space="preserve">
<style type="text/css">
	.st0{fill:#4CCBDA;}
</style>
<path class="st0" d="M909.7,94.1L909.7,94.1c0,0-0.1,0-0.1,0c-0.1,0-0.2,0-0.3,0v0C833.6,93.9,795.7,52.6,720,52.6
	c-139.5,0-209.3,48.6-348.7,48.7v0c-0.1,0-0.2,0-0.2,0c-0.1,0-0.2,0-0.2,0v0C222.7,101.1,148.4,0,0.1,0v236.2h1439.8V0
	C1227.8,0,1121.6,93.9,909.7,94.1z"/>
</svg>
