<?xml version="1.0" encoding="utf-8"?>
<!-- Generator: Adobe Illustrator 24.1.0, SVG Export Plug-In . SVG Version: 6.00 Build 0)  -->
<svg version="1.1" id="Calque_1" xmlns="http://www.w3.org/2000/svg" xmlns:xlink="http://www.w3.org/1999/xlink" x="0px" y="0px"
	 viewBox="0 0 1440 322" style="enable-background:new 0 0 1440 322;" xml:space="preserve">
<style type="text/css">
	.st0{fill:#62D3D0;}
</style>
<path class="st0" d="M1410.6,46.1c-29.4,3-88.1,8.8-146.5,8.6c-58.6-0.3-116.8-6.7-175.3-7c-58.4-0.2-117.2,5.6-175.6,8.6
	c-58.6,2.9-116.8,2.9-175.3,5.8c-58.4,3-117.2,8.8-175.6,16.3c-58.6,7.5-116.8,16.5-175.3,3.7c-58.4-12.8-117.2-47.4-146.5-64.8l0,0
	C221.5,6.2,199.2,2.4,177.7,6.8L85.1,29.6c-12.9,3.2-26,5.7-39.2,7.4L0,43.2v278.4h211h29.4c29.4,0,88.1,0,146.5,0
	c58.6,0,116.8,0,175.3,0c58.4,0,117.2,0,175.6,0c58.6,0,116.8,0,175.3,0c58.4,0,117.2,0,175.6,0c58.6,0,116.8,0,175.3,0
	c58.4,0,117.2,0,146.5,0h29.4V43.2L1410.6,46.1z"/>
</svg>
