<?xml version="1.0" encoding="utf-8"?>
<!-- Generator: Adobe Illustrator 24.1.0, SVG Export Plug-In . SVG Version: 6.00 Build 0)  -->
<svg version="1.1" id="Calque_1" xmlns="http://www.w3.org/2000/svg" xmlns:xlink="http://www.w3.org/1999/xlink" x="0px" y="0px"
	 viewBox="0 0 1440 118" style="enable-background:new 0 0 1440 118;" xml:space="preserve">
<style type="text/css">
	.st0{fill:#4AB7E7;}
</style>
<path class="st0" d="M1419.6,9c-4.4,1.7-8.9,3-13.6,3.7c-36.1,5.5-104.5,11.9-166.7,15c-66.8,3.5-133.2-1.3-200.1,1.9
	C972.6,32.8,905.6,44,838.9,48.8c-66.8,4.8-133.2,3.2-200.1,1.1c-66.7-2.2-133.7-4.8-200.4-3.2c-66.8,1.6-133.2,7.4-200.1,3.4
	c-64.8-3.9-59.6,16.7-110-3.7c-1.6-0.3-24-10.9-34-15.9c-4-2-8-3.8-12.1-5.4l-24.6-9.8C54.2,12.9,23.1,4,10.2,1.2
	C7.3,0.6,4.4,0.4,1.5,0.7L0,0.8v116.8h37.7h33.5c33.5,0,100.5,0,167.2,0c66.8,0,133.2,0,200.1,0c66.7,0,133.7,0,200.4,0
	c66.8,0,133.2,0,200.1,0c66.7,0,133.7,0,200.4,0c66.8,0,133.2,0,200.1,0c66.7,0,133.7,0,167.2,0h33.5V0.8L1419.6,9z"/>
</svg>
