<?xml version="1.0" encoding="utf-8"?>
<!-- Generator: Adobe Illustrator 24.1.0, SVG Export Plug-In . SVG Version: 6.00 Build 0)  -->
<svg version="1.1" id="Calque_1" xmlns="http://www.w3.org/2000/svg" xmlns:xlink="http://www.w3.org/1999/xlink" x="0px" y="0px"
	 viewBox="0 0 1440 396" style="enable-background:new 0 0 1440 396;" xml:space="preserve">
<style type="text/css">
	.st0{fill:#7CDAC5;}
</style>
<path class="st0" d="M1413.7,124.6c-26.3-2.4-78.8-7.2-131-15.5c-52.4-8.2-104.4-20-156.8-20c-52.3,0-104.8,11.8-157,18.7
	c-52.4,6.9-104.4,9.1-156.8-6.9c-52.3-16-104.8-50.3-157-71.1C602.6,9,550.6,1.7,498.2,0.2c-52.3-1.3-104.8,3.5-131,5.9l0,0
	c-17.4,1.6-34.6,5.3-51.2,11L167.7,88.8C115.6,114.1,58.3,127.1,0.4,127l-1.5,0v269h342h26.3c26.3,0,78.8,0,131,0
	c52.4,0,104.4,0,156.8,0c52.3,0,104.8,0,157,0c52.4,0,104.4,0,156.8,0c52.3,0,104.8,0,157,0c52.4,0,104.4,0,156.8,0
	c52.3,0,104.8,0,131,0h26.3V127L1413.7,124.6z"/>
</svg>
