<?xml version="1.0" encoding="utf-8"?>
<!-- Generator: Adobe Illustrator 24.1.0, SVG Export Plug-In . SVG Version: 6.00 Build 0)  -->
<svg version="1.1" id="Calque_1" xmlns="http://www.w3.org/2000/svg" xmlns:xlink="http://www.w3.org/1999/xlink" x="0px" y="0px"
	 viewBox="0 0 1440 396" style="enable-background:new 0 0 1440 396;" xml:space="preserve">
<style type="text/css">
	.st0{fill:#7CDAC5;}
</style>
<path class="st0" d="M1052.1,94L1052.1,94c-0.2,0-0.5,0-0.7,0c-0.1,0-0.2,0-0.2,0v0c-189-0.1-189.5-31.9-378.7-31.9
	c-174.9,0.1-175.3,61.8-349.8,62v0c-0.1,0-0.2,0-0.3,0c-0.2,0-0.4,0-0.6,0v0C161.4,123.6,161,0,0,0v396h1439.9V0
	C1245.8,0,1245.5,93.7,1052.1,94z"/>
</svg>
