<svg xmlns="http://www.w3.org/2000/svg"  viewBox="0 0 64 64" width="64px" height="64px"><linearGradient id="w9JZ9JUMNyPrGJ~s3Denqa" x1="32" x2="32" y1="6" y2="58.001" gradientUnits="userSpaceOnUse"><stop offset="0" stop-color="#1a6dff"/><stop offset="1" stop-color="#c822ff"/></linearGradient><path fill="url(#w9JZ9JUMNyPrGJ~s3Denqa)" d="M34.151,58.001c-3.041,0-4.346-2.072-5.21-3.442l-5.544-8.762	c-0.435-0.688-0.543-1.525-0.296-2.301c0.246-0.775,0.819-1.397,1.572-1.707l18.809-7.744c0.005-0.002,0.009-0.004,0.014-0.006	c1.048-0.413,4.468-2.185,4.468-7.619c0-4.779-4.226-9.938-11.053-9.938c-2.666,0-6.28,1.473-6.316,1.487l-11.693,4.798	c-2.865,1.18-2.865,2.063-2.865,2.536c0.024,0.31,0.295,2.125,3.018,2.125c0.245,0,1.293-0.143,2.83-0.775l11.607-4.799	c1.688-0.693,3.768-0.475,5.308,0.558c1.44,0.965,2.233,2.508,2.233,4.343c0,2.694-1.756,3.644-3.554,4.384l-11.433,4.726	c-2.359,0.972-5.279,1.6-7.438,1.6c-7.696,0-13.5-5.228-13.5-12.16c0-3.958,1.671-9.364,9.633-12.643l11.521-4.744	C28.56,6.972,30.92,6,36.018,6c14.129,0,22.875,10.6,22.875,20.42c0,12.709-9.518,17.059-11.425,17.801l-9.624,3.963l0.959,1.477	c0.611,0.969,0.894,1.956,0.894,3.117C39.696,56.366,36.822,58.001,34.151,58.001z M44.237,35.897l-18.802,7.741	c-0.281,0.115-0.389,0.341-0.429,0.465c-0.039,0.123-0.081,0.368,0.08,0.624l5.547,8.765c0.813,1.29,1.58,2.509,3.518,2.509	c0.363,0,3.545-0.091,3.545-3.224c0-0.787-0.173-1.397-0.578-2.038l-1.462-2.251c-0.199-0.313-0.249-0.688-0.14-1.032	c0.108-0.346,0.362-0.624,0.697-0.764l10.51-4.328c1.713-0.667,10.169-4.537,10.169-15.944C56.893,18.991,50.258,8,36.018,8	c-4.702,0-6.78,0.855-8.979,1.761l-11.536,4.75c-6.938,2.856-8.395,7.446-8.395,10.793c0,5.792,4.944,10.16,11.5,10.16	c1.572,0,4.247-0.448,6.676-1.448l11.433-4.726c1.71-0.704,2.316-1.193,2.316-2.535c0-1.47-0.732-2.27-1.348-2.682	c-0.984-0.66-2.363-0.811-3.432-0.37l-11.606,4.799c-1.661,0.685-2.974,0.927-3.593,0.927c-4.096,0-5.018-3.055-5.018-4.125	c0-1.333,0.487-2.896,4.104-4.386l11.693-4.798c0.161-0.066,4.013-1.638,7.077-1.638c8.063,0,13.053,6.196,13.053,11.938	C49.964,33.105,45.591,35.361,44.237,35.897z"/><linearGradient id="w9JZ9JUMNyPrGJ~s3Denqb" x1="32" x2="32" y1="54" y2="10" gradientUnits="userSpaceOnUse"><stop offset="0" stop-color="#e6abff"/><stop offset="1" stop-color="#6dc7ff"/></linearGradient><path fill="url(#w9JZ9JUMNyPrGJ~s3Denqb)" d="M54.89,26.42c0,10.11-7.39,13.5-8.87,14.07l-10.56,4.35c-0.9,0.37-1.57,1.11-1.85,2.02	c-0.29,0.91-0.16,1.89,0.35,2.69l1.49,2.29c0.18,0.29,0.25,0.53,0.25,0.94c0,0.3,0,1.22-1.55,1.22c-0.72,0-0.97-0.22-1.82-1.57	l-4.75-7.51l17.43-7.18c3.34-1.32,6.95-4.99,6.95-11.32c0-6.7-5.75-13.94-15.05-13.94c-3.4,0-7.39,1.61-7.84,1.79l-11.69,4.8	c-3.65,1.5-5.34,3.48-5.34,6.23c0,2,1.71,6.13,7.01,6.13c1.09,0,2.72-0.4,4.36-1.08l12.037-4.979	c0.475-0.197,1.023-0.021,1.295,0.415l0,0c0.344,0.552,0.111,1.281-0.49,1.53L24.52,32.17c-2.16,0.89-4.58,1.29-5.91,1.29	c-6.17,0-9.5-4.2-9.5-8.16c0-3.98,2.4-6.98,7.15-8.94l11.53-4.74C29.9,10.75,31.71,10,36.02,10C48.89,10,54.89,19.8,54.89,26.42z"/></svg>