<!--?xml version="1.0" standalone="no"?-->
              <svg id="sw-js-blob-svg" viewBox="0 0 100 100" xmlns="http://www.w3.org/2000/svg" version="1.1">
                    <defs> 
                        <linearGradient id="sw-gradient" x1="0" x2="1" y1="1" y2="0">
                            <stop id="stop1" stop-color="rgba(74.18, 196.999, 208.364, 1)" offset="0%"></stop>
                            <stop id="stop2" stop-color="rgba(53.347, 251.584, 255, 1)" offset="100%"></stop>
                        </linearGradient>
                    </defs>
                <path fill="url(#sw-gradient)" d="M26.7,-33C32.6,-26.9,34,-16.6,34.6,-7C35.2,2.5,35,11.3,31,17.6C27,23.9,19.3,27.7,11.7,29.1C4.2,30.5,-3.1,29.5,-10.3,27.3C-17.4,25.1,-24.5,21.7,-27.8,16C-31.1,10.4,-30.6,2.5,-29.5,-5.4C-28.4,-13.4,-26.6,-21.4,-21.5,-27.7C-16.5,-34,-8.2,-38.4,1.1,-39.7C10.4,-41,20.9,-39.2,26.7,-33Z" width="100%" height="100%" transform="translate(50 50)" style="transition: all 0.3s ease 0s;" stroke-width="0" stroke="url(#sw-gradient)"></path>
              </svg>